<svg width="16" height="16" viewBox="0 0 16 16" fill="none" xmlns="http://www.w3.org/2000/svg">
<path d="M7.99758 0.000610352C3.58057 0.000610352 0 3.58776 0 8.02759C0 8.82147 0.117396 9.60064 0.352187 10.3504C0.498932 10.1446 0.645676 9.93878 0.777747 9.71826C1.33538 8.89497 1.87833 8.07169 2.42129 7.23371L2.8175 6.60155C2.94957 6.39573 3.08164 6.17521 3.19903 5.96939C3.46317 5.54305 3.71264 5.11671 3.94743 4.69037C4.06483 4.46984 4.18222 4.26402 4.31429 4.0435C4.44636 3.82298 4.54908 3.61716 4.66648 3.39664C4.78387 3.17612 4.90127 2.9556 5.00399 2.74978L5.32683 2.08821L5.35618 2.04411C5.53227 1.69127 5.95783 1.54426 6.32469 1.70598C6.58883 1.85299 6.75025 2.13232 6.73558 2.44105C6.73558 2.82328 6.66221 3.22022 6.63286 3.60246C6.60351 3.9847 6.58883 4.38164 6.55949 4.77857C6.53014 5.55775 6.51546 6.35163 6.51546 7.1308C6.51546 7.90998 6.55949 8.68915 6.63286 9.43893C6.67688 9.80646 6.73558 10.174 6.80895 10.5415C6.86765 10.865 6.97037 11.1884 7.11711 11.4824C7.16114 11.5706 7.21984 11.6588 7.29321 11.7324C7.33723 11.7618 7.30788 11.7471 7.33723 11.7471C7.36658 11.7471 7.35191 11.7471 7.36658 11.7471L7.39593 11.7324H7.4106L7.45463 11.7176C7.4693 11.7029 7.49865 11.6882 7.51333 11.6735C7.63072 11.5853 7.73344 11.4824 7.83616 11.3648C8.07096 11.0855 8.29107 10.8062 8.48184 10.4974C8.68728 10.1887 8.87805 9.85057 9.06882 9.51243C9.45035 8.83617 9.80254 8.1452 10.1401 7.43953C10.3015 7.0867 10.4776 6.73386 10.639 6.36633C10.8004 6.01349 10.9618 5.64596 11.1086 5.29312C11.2553 4.92559 11.6809 4.74917 12.0477 4.89619C12.2825 4.98439 12.4439 5.19021 12.488 5.44014C12.488 5.52835 12.5026 5.64596 12.5173 5.76357L12.5613 6.1017C12.5907 6.32222 12.62 6.54275 12.6641 6.76327C12.7374 7.20431 12.8255 7.64535 12.9429 8.0717C13.0603 8.49804 13.207 8.92438 13.3831 9.33602C13.5592 9.74766 13.7793 10.1299 14.0581 10.4827C14.1168 10.5709 14.1022 10.6885 14.0288 10.7474C13.9554 10.8062 13.8527 10.8062 13.794 10.7474C13.4271 10.4239 13.1043 10.0564 12.8255 9.65945C12.5467 9.26251 12.3119 8.83617 12.0918 8.40983C11.945 8.1158 11.8276 7.82177 11.6955 7.52774C11.6075 7.70416 11.5341 7.88058 11.4461 8.04229C11.0939 8.76266 10.7417 9.48303 10.3308 10.2034C10.1254 10.5856 9.91994 10.9385 9.68515 11.2913C9.45035 11.6588 9.18621 12.0117 8.9074 12.3351C8.74598 12.5262 8.55521 12.6879 8.36444 12.8497C8.30575 12.8938 8.24705 12.9379 8.17368 12.9673L8.04161 13.0408L7.96823 13.0702H7.95356L7.90954 13.0849H7.88019L7.82149 13.0996C7.77746 13.1143 7.74812 13.129 7.70409 13.129C7.61605 13.1437 7.528 13.1584 7.43995 13.1731C7.24919 13.1878 7.04374 13.1584 6.86765 13.0996C6.69156 13.0408 6.53014 12.9379 6.38339 12.8203C6.16327 12.6291 5.97251 12.3939 5.84044 12.1293C5.63499 11.7176 5.48825 11.2766 5.4002 10.8209C5.31216 10.4092 5.25346 9.98288 5.20943 9.57124C5.12139 8.74796 5.09204 7.93938 5.07736 7.1161C5.07736 6.73387 5.07736 6.33693 5.07736 5.95469C4.93062 6.23402 4.78387 6.51334 4.63713 6.77797C4.51973 6.99849 4.40234 7.21901 4.27027 7.43953L3.90341 8.1011C3.40448 8.98318 2.89087 9.85057 2.34791 10.718C2.0104 11.2766 1.65821 11.8353 1.30603 12.3792C3.72731 16.084 8.68728 17.1131 12.3852 14.6873C16.0832 12.2616 17.1104 7.29252 14.6891 3.58776C13.207 1.36784 10.6977 0.000610352 7.99758 0.000610352Z" fill="white"/>
</svg>
