<svg width="158" height="40" viewBox="0 0 158 40" fill="none" xmlns="http://www.w3.org/2000/svg">
<path d="M14 35H43.7271V5H14V35ZM38.0054 17.1134H31.7239V10.7743H38.0054V17.1134ZM19.7206 10.7743H26.0056V22.8865H38.0054V29.2257H19.7206V10.7743ZM63.0851 5C60.1453 5 57.2716 5.87974 54.8274 7.52796C52.383 9.17619 50.4779 11.5189 49.3529 14.2598C48.2279 17.0007 47.9337 20.0166 48.5071 22.9263C49.0807 25.836 50.4962 28.5088 52.5749 30.6065C54.6536 32.7044 57.3021 34.133 60.1853 34.7118C63.0687 35.2905 66.0571 34.9936 68.7731 33.8582C71.4891 32.7229 73.8104 30.8003 75.4437 28.3336C77.0769 25.8668 77.9487 22.9667 77.9487 20C77.944 16.0232 76.3766 12.2106 73.5901 9.39854C70.8036 6.58649 67.0258 5.00464 63.0851 5ZM63.0851 29.2257C61.277 29.2257 59.5095 28.6847 58.0061 27.6709C56.5028 26.6572 55.331 25.2164 54.6391 23.5305C53.9472 21.8448 53.7662 19.9898 54.1189 18.2001C54.4717 16.4105 55.3424 14.7667 56.6208 13.4764C57.8994 12.1862 59.5283 11.3075 61.3016 10.9515C63.0749 10.5956 64.913 10.7783 66.5835 11.4765C68.2539 12.1748 69.6818 13.3573 70.6862 14.8745C71.6908 16.3916 72.2269 18.1753 72.2269 20C72.2232 22.4457 71.2589 24.7902 69.5452 26.5195C67.8316 28.2489 65.5085 29.222 63.0851 29.2257ZM131.138 5C128.197 4.99978 125.324 5.87931 122.879 7.52739C120.435 9.17547 118.53 11.5181 117.405 14.2589C116.279 16.9998 115.985 20.0159 116.558 22.9256C117.132 25.8354 118.547 28.5083 120.626 30.6062C122.704 32.7041 125.353 34.1329 128.237 34.7117C131.119 35.2905 134.108 34.9936 136.825 33.8583C139.54 32.723 141.861 30.8005 143.494 28.3337C145.128 25.8669 146 22.9668 146 20C145.995 16.0234 144.428 12.2109 141.642 9.39894C138.856 6.58693 135.078 5.00496 131.138 5ZM131.138 29.2257C129.33 29.226 127.562 28.685 126.058 27.6714C124.555 26.6579 123.383 25.2171 122.691 23.5313C121.999 21.8456 121.818 19.9905 122.17 18.2008C122.523 16.4112 123.393 14.7672 124.672 13.4768C125.95 12.1865 127.58 11.3077 129.353 10.9516C131.126 10.5956 132.964 10.7782 134.634 11.4764C136.305 12.1747 137.733 13.3571 138.738 14.8744C139.742 16.3916 140.278 18.1753 140.278 20C140.275 22.4455 139.311 24.7897 137.596 26.5191C135.884 28.2484 133.561 29.2217 131.138 29.2257ZM97.1108 5C94.171 5 91.2972 5.87974 88.853 7.52796C86.4087 9.17619 84.5036 11.5189 83.3786 14.2598C82.2536 17.0007 81.9593 20.0166 82.5328 22.9263C83.1064 25.836 84.5219 28.5088 86.6006 30.6065C88.6793 32.7044 91.3277 34.133 94.211 34.7118C97.0942 35.2905 100.083 34.9936 102.799 33.8582C105.515 32.7229 107.836 30.8003 109.469 28.3336C111.103 25.8668 111.974 22.9667 111.974 20C111.97 16.0232 110.402 12.2106 107.616 9.39854C104.829 6.58649 101.051 5.00464 97.1108 5ZM97.1108 29.2257C95.4261 29.2265 93.7742 28.7576 92.3369 27.8707C90.8998 26.9838 89.7334 25.7136 88.9665 24.1999C88.1997 22.6862 87.8621 20.9881 87.9912 19.2931C88.1203 17.598 88.7109 15.9719 89.698 14.5943C90.6851 13.2167 92.0302 12.1411 93.5847 11.4862C95.1393 10.8313 96.8429 10.6227 98.5076 10.8833C100.172 11.1439 101.733 11.8637 103.018 12.9631C104.303 14.0625 105.262 15.4988 105.789 17.1134H97.1108V22.8865H105.789C105.185 24.729 104.022 26.333 102.464 27.4707C100.907 28.6086 99.0337 29.2226 97.1108 29.2257Z" fill="#F2C94C"/>
</svg>
